<svg xmlns="http://www.w3.org/2000/svg" viewBox="0 0 240 240" role="img" aria-label="Sclass mark">
  <defs><linearGradient id="gold" x1="0" x2="1"><stop offset="0%" stop-color="#8d6a18"/><stop offset="30%" stop-color="#d7b04b"/><stop offset="55%" stop-color="#f6dd8b"/><stop offset="78%" stop-color="#c7952e"/><stop offset="100%" stop-color="#7a5a17"/></linearGradient></defs>
  <rect width="240" height="240" rx="48" fill="#0b0b0b"/>
  <path d="M120 32c-39 0-68 20-68 50 0 28 20 40 68 52 39 10 54 16 54 33 0 18-19 31-47 31-29 0-53-9-81-29l-19 27c30 22 62 34 98 34 58 0 98-29 98-76 0-39-24-57-85-72-34-8-46-14-46-28 0-12 13-20 35-20 21 0 40 7 63 22l19-28c-24-18-53-27-89-27z" fill="url(#gold)"/>
</svg>